<svg xmlns="http://www.w3.org/2000/svg" xmlns:xlink="http://www.w3.org/1999/xlink" width="1068" height="857pt" viewBox="0 0 800.5 857"><g id="graph0" class="graph" transform="scale(1 1) rotate(0) translate(4 853)"><title>unnamed</title><polygon fill="#fff" stroke="transparent" points="-4 4 -4 -853 796.5 -853 796.5 4 -4 4"/><g id="clust1" class="cluster"><title>cluster_L</title><polygon fill="none" stroke="#000" points="8 -726 8 -841 496 -841 496 -726 8 -726"/></g><g id="node1" class="node"><title>Type: space</title><polygon fill="#f8f8f8" stroke="#000" points="487.5 -833 16.5 -833 16.5 -734 487.5 -734 487.5 -833"/><text x="24.5" y="-816.2" font-family="Times,serif" font-size="16" text-anchor="start">Type: space</text><text x="24.5" y="-798.2" font-family="Times,serif" font-size="16" text-anchor="start">Showing nodes accounting for 1832.09kB, 46.05% of 3978.91kB total</text><text x="24.5" y="-780.2" font-family="Times,serif" font-size="16" text-anchor="start">Dropped 13 nodes (cum &lt;= 19.89kB)</text><text x="24.5" y="-743.2" font-family="Times,serif" font-size="16" text-anchor="start">See https://git.io/JfYMW for how to read the graph</text></g><g id="node1" class="node"><title>N1</title><g id="a_node1"><a xlink:title="_execute_compiled (1718.75kB)"><polygon fill="#eddad5" stroke="#b22700" points="664.5 -248 445.5 -248 445.5 -188 664.5 -188 664.5 -248"/><text x="555" y="-224.8" font-family="Times,serif" font-size="24" text-anchor="middle">_execute_compiled</text><text x="555" y="-198.8" font-family="Times,serif" font-size="24" text-anchor="middle">1718.75kB (43.20%)</text></a></g></g><g id="N1_0" class="node"><title>N1_0</title><g id="a_N1_0"><a xlink:title="1718.75kB"><polygon fill="#f8f8f8" stroke="#000" points="582 -130 532 -130 528 -126 528 -94 578 -94 582 -98 582 -130"/><polyline fill="none" stroke="#000" points="578 -126 528 -126"/><polyline fill="none" stroke="#000" points="578 -126 578 -94"/><polyline fill="none" stroke="#000" points="578 -126 582 -130"/><text x="555" y="-110.1" font-family="Times,serif" font-size="8" text-anchor="middle">kind:buffer</text></a></g></g><g id="edge1" class="edge"><title>N1-&gt;N1_0</title><g id="a_edge1"><a xlink:title="1718.75kB"><path fill="none" stroke="#000" d="M555,-187.75C555,-172.91 555,-154.99 555,-140.42"/><polygon fill="#000" stroke="#000" points="558.5 -140.03 555 -130.03 551.5 -140.03 558.5 -140.03"/></a></g><g id="a_edge1-label"><a xlink:title="1718.75kB"><text x="587" y="-158.8" font-family="Times,serif" font-size="14" text-anchor="middle">1718.75kB</text></a></g></g><g id="node2" class="node"><title>N2</title><g id="a_node2"><a xlink:title="_xla_call_impl (1840.31kB)"><polygon fill="#eddad5" stroke="#b22400" points="604 -335 506 -335 506 -299 604 -299 604 -335"/><text x="555" y="-319.6" font-family="Times,serif" font-size="8" text-anchor="middle">_xla_call_impl</text><text x="555" y="-310.6" font-family="Times,serif" font-size="8" text-anchor="middle">0 of 1840.31kB (46.25%)</text></a></g></g><g id="edge8" class="edge"><title>N2-&gt;N1</title><g id="a_edge8"><a xlink:title="_xla_call_impl -&gt; _execute_compiled (1718.75kB)"><path fill="none" stroke="#b22700" stroke-width="3" d="M555,-298.66C555,-287.54 555,-272.64 555,-258.73"/><polygon fill="#b22700" stroke="#b22700" stroke-width="3" points="558.5 -258.37 555 -248.37 551.5 -258.37 558.5 -258.37"/></a></g><g id="a_edge8-label"><a xlink:title="_xla_call_impl -&gt; _execute_compiled (1718.75kB)"><text x="587" y="-269.8" font-family="Times,serif" font-size="14" text-anchor="middle">1718.75kB</text></a></g></g><g id="node7" class="node"><title>N7</title><g id="a_node7"><a xlink:title="memoized_fun (121.56kB)"><polygon fill="#edebe9" stroke="#b2a897" points="773 -236 683 -236 683 -200 773 -200 773 -236"/><text x="728" y="-220.6" font-family="Times,serif" font-size="8" text-anchor="middle">memoized_fun</text><text x="728" y="-211.6" font-family="Times,serif" font-size="8" text-anchor="middle">0 of 121.56kB (3.06%)</text></a></g></g><g id="edge9" class="edge"><title>N2-&gt;N7</title><g id="a_edge9"><a xlink:title="_xla_call_impl -&gt; memoized_fun (121.56kB)"><path fill="none" stroke="#b2a897" d="M589.1,-298.94C600,-293.35 612.07,-287.03 623,-281 645.98,-268.31 671.34,-253.37 691.37,-241.33"/><polygon fill="#b2a897" stroke="#b2a897" points="693.42 -244.19 700.18 -236.02 689.81 -238.19 693.42 -244.19"/></a></g><g id="a_edge9-label"><a xlink:title="_xla_call_impl -&gt; memoized_fun (121.56kB)"><text x="678" y="-269.8" font-family="Times,serif" font-size="14" text-anchor="middle">121.56kB</text></a></g></g><g id="node3" class="node"><title>N3</title><g id="a_node3"><a xlink:title="_xla_callable (121.56kB)"><polygon fill="#edebe9" stroke="#b2a897" points="792.5 -137 663.5 -137 663.5 -87 792.5 -87 792.5 -137"/><text x="728" y="-122.6" font-family="Times,serif" font-size="13" text-anchor="middle">_xla_callable</text><text x="728" y="-108.6" font-family="Times,serif" font-size="13" text-anchor="middle">113.34kB (2.85%)</text><text x="728" y="-94.6" font-family="Times,serif" font-size="13" text-anchor="middle">of 121.56kB (3.06%)</text></a></g></g><g id="N3_0" class="node"><title>N3_0</title><g id="a_N3_0"><a xlink:title="121.56kB"><polygon fill="#f8f8f8" stroke="#000" points="761.5 -36 698.5 -36 694.5 -32 694.5 0 757.5 0 761.5 -4 761.5 -36"/><polyline fill="none" stroke="#000" points="757.5 -32 694.5 -32"/><polyline fill="none" stroke="#000" points="757.5 -32 757.5 0"/><polyline fill="none" stroke="#000" points="757.5 -32 761.5 -36"/><text x="728" y="-16.1" font-family="Times,serif" font-size="8" text-anchor="middle">kind:executable</text></a></g></g><g id="edge2" class="edge"><title>N3-&gt;N3_0</title><g id="a_edge2"><a xlink:title="121.56kB"><path fill="none" stroke="#000" d="M728,-86.83C728,-74.35 728,-59.08 728,-46.19"/><polygon fill="#000" stroke="#000" points="731.5 -46.04 728 -36.04 724.5 -46.04 731.5 -46.04"/></a></g><g id="a_edge2-label"><a xlink:title="121.56kB"><text x="757" y="-57.8" font-family="Times,serif" font-size="14" text-anchor="middle">121.56kB</text></a></g></g><g id="node4" class="node"><title>N4</title><g id="a_node4"><a xlink:title="anotherfunc (1840.31kB)"><polygon fill="#eddad5" stroke="#b22400" points="604 -683 506 -683 506 -647 604 -647 604 -683"/><text x="555" y="-667.6" font-family="Times,serif" font-size="8" text-anchor="middle">anotherfunc</text><text x="555" y="-658.6" font-family="Times,serif" font-size="8" text-anchor="middle">0 of 1840.31kB (46.25%)</text></a></g></g><g id="node9" class="node"><title>N9</title><g id="a_node9"><a xlink:title="normal (1840.31kB)"><polygon fill="#eddad5" stroke="#b22400" points="604 -596 506 -596 506 -560 604 -560 604 -596"/><text x="555" y="-580.6" font-family="Times,serif" font-size="8" text-anchor="middle">normal</text><text x="555" y="-571.6" font-family="Times,serif" font-size="8" text-anchor="middle">0 of 1840.31kB (46.25%)</text></a></g></g><g id="edge4" class="edge"><title>N4-&gt;N9</title><g id="a_edge4"><a xlink:title="anotherfunc -&gt; normal (1840.31kB)"><path fill="none" stroke="#b22400" stroke-width="3" d="M555,-646.8C555,-635.16 555,-619.55 555,-606.24"/><polygon fill="#b22400" stroke="#b22400" stroke-width="3" points="558.5 -606.18 555 -596.18 551.5 -606.18 558.5 -606.18"/></a></g><g id="a_edge4-label"><a xlink:title="anotherfunc -&gt; normal (1840.31kB)"><text x="587" y="-617.8" font-family="Times,serif" font-size="14" text-anchor="middle">1840.31kB</text></a></g></g><g id="node5" class="node"><title>N5</title><g id="a_node5"><a xlink:title="call_bind (1840.31kB)"><polygon fill="#eddad5" stroke="#b22400" points="604 -422 506 -422 506 -386 604 -386 604 -422"/><text x="555" y="-406.6" font-family="Times,serif" font-size="8" text-anchor="middle">call_bind</text><text x="555" y="-397.6" font-family="Times,serif" font-size="8" text-anchor="middle">0 of 1840.31kB (46.25%)</text></a></g></g><g id="edge5" class="edge"><title>N5-&gt;N2</title><g id="a_edge5"><a xlink:title="call_bind -&gt; _xla_call_impl (1840.31kB)"><path fill="none" stroke="#b22400" stroke-width="3" d="M555,-385.8C555,-374.16 555,-358.55 555,-345.24"/><polygon fill="#b22400" stroke="#b22400" stroke-width="3" points="558.5 -345.18 555 -335.18 551.5 -345.18 558.5 -345.18"/></a></g><g id="a_edge5-label"><a xlink:title="call_bind -&gt; _xla_call_impl (1840.31kB)"><text x="587" y="-356.8" font-family="Times,serif" font-size="14" text-anchor="middle">1840.31kB</text></a></g></g><g id="node6" class="node"><title>N6</title><g id="a_node6"><a xlink:title="f_jitted (1840.31kB)"><polygon fill="#eddad5" stroke="#b22400" points="604 -509 506 -509 506 -473 604 -473 604 -509"/><text x="555" y="-493.6" font-family="Times,serif" font-size="8" text-anchor="middle">f_jitted</text><text x="555" y="-484.6" font-family="Times,serif" font-size="8" text-anchor="middle">0 of 1840.31kB (46.25%)</text></a></g></g><g id="edge6" class="edge"><title>N6-&gt;N5</title><g id="a_edge6"><a xlink:title="f_jitted -&gt; call_bind (1840.31kB)"><path fill="none" stroke="#b22400" stroke-width="3" d="M555,-472.8C555,-461.16 555,-445.55 555,-432.24"/><polygon fill="#b22400" stroke="#b22400" stroke-width="3" points="558.5 -432.18 555 -422.18 551.5 -432.18 558.5 -432.18"/></a></g><g id="a_edge6-label"><a xlink:title="f_jitted -&gt; call_bind (1840.31kB)"><text x="587" y="-443.8" font-family="Times,serif" font-size="14" text-anchor="middle">1840.31kB</text></a></g></g><g id="edge10" class="edge"><title>N7-&gt;N3</title><g id="a_edge10"><a xlink:title="memoized_fun -&gt; _xla_callable (121.56kB)"><path fill="none" stroke="#b2a897" d="M728,-199.83C728,-185.68 728,-165.18 728,-147.65"/><polygon fill="#b2a897" stroke="#b2a897" points="731.5 -147.2 728 -137.2 724.5 -147.2 731.5 -147.2"/></a></g><g id="a_edge10-label"><a xlink:title="memoized_fun -&gt; _xla_callable (121.56kB)"><text x="757" y="-158.8" font-family="Times,serif" font-size="14" text-anchor="middle">121.56kB</text></a></g></g><g id="node8" class="node"><title>N8</title><g id="a_node8"><a xlink:title="&lt;unknown&gt; (1840.31kB)"><polygon fill="#eddad5" stroke="#b22400" points="604 -801.5 506 -801.5 506 -765.5 604 -765.5 604 -801.5"/><text x="555" y="-786.1" font-family="Times,serif" font-size="8" text-anchor="middle">&lt;unknown&gt;</text><text x="555" y="-777.1" font-family="Times,serif" font-size="8" text-anchor="middle">0 of 1840.31kB (46.25%)</text></a></g></g><g id="edge3" class="edge"><title>N8-&gt;N4</title><g id="a_edge3"><a xlink:title="&lt;unknown&gt; -&gt; anotherfunc (1840.31kB)"><path fill="none" stroke="#b22400" stroke-width="3" d="M555,-765.31C555,-746.38 555,-715.68 555,-693.42"/><polygon fill="#b22400" stroke="#b22400" stroke-width="3" points="558.5 -693.26 555 -683.26 551.5 -693.26 558.5 -693.26"/></a></g><g id="a_edge3-label"><a xlink:title="&lt;unknown&gt; -&gt; anotherfunc (1840.31kB)"><text x="587" y="-704.8" font-family="Times,serif" font-size="14" text-anchor="middle">1840.31kB</text></a></g></g><g id="edge7" class="edge"><title>N9-&gt;N6</title><g id="a_edge7"><a xlink:title="normal -&gt; f_jitted (1840.31kB)"><path fill="none" stroke="#b22400" stroke-width="3" d="M555,-559.8C555,-548.16 555,-532.55 555,-519.24"/><polygon fill="#b22400" stroke="#b22400" stroke-width="3" points="558.5 -519.18 555 -509.18 551.5 -519.18 558.5 -519.18"/></a></g><g id="a_edge7-label"><a xlink:title="normal -&gt; f_jitted (1840.31kB)"><text x="587" y="-530.8" font-family="Times,serif" font-size="14" text-anchor="middle">1840.31kB</text></a></g></g></g></svg>